<svg width="400" height="129" viewBox="0 0 400 129" fill="none" xmlns="http://www.w3.org/2000/svg">
<rect width="90.0261" height="120.046" rx="6" transform="matrix(0.978689 0.205346 -0.478589 0.878039 57.4526 0.244141)" fill="#E7410C" fill-opacity="0.64"/>
<rect width="90.0261" height="120.046" rx="6" transform="matrix(0.978689 0.205346 -0.478589 0.878039 99.8594 1.01416)" fill="#E7410C" fill-opacity="0.64"/>
<rect width="90.0261" height="120.046" rx="6" transform="matrix(0.978689 0.205346 -0.478589 0.878039 142.266 1.78418)" fill="#E7410C" fill-opacity="0.64"/>
<rect width="90.0261" height="120.046" rx="6" transform="matrix(0.978689 0.205346 -0.478589 0.878039 184.672 2.5542)" fill="#E7410C" fill-opacity="0.64"/>
<rect width="90.0261" height="120.046" rx="6" transform="matrix(0.978689 0.205346 -0.478589 0.878039 227.079 3.32422)" fill="#E7410C" fill-opacity="0.64"/>
<rect width="90.0261" height="120.046" rx="6" transform="matrix(0.978689 0.205346 -0.478589 0.878039 269.486 4.09424)" fill="#E7410C" fill-opacity="0.64"/>
<rect width="90.0261" height="120.046" rx="6" transform="matrix(0.978689 0.205346 -0.478589 0.878039 311.892 4.86426)" fill="#E7410C" fill-opacity="0.64"/>
</svg>
