<svg width="127" height="27" viewBox="0 0 127 27" fill="none" xmlns="http://www.w3.org/2000/svg">
<path d="M24.4304 19.38L24.7904 19.98H23.4704L23.5004 20.01C23.5204 20.03 23.5304 20.07 23.5304 20.13C23.5504 20.19 23.5704 20.24 23.5904 20.28H23.5004V20.34C23.5004 20.42 23.4904 20.49 23.4704 20.55C23.4504 20.61 23.4204 20.67 23.3804 20.73H23.7704C23.7304 20.79 23.6804 20.84 23.6204 20.88H21.8804C21.7804 20.96 21.6504 21 21.4904 21H14.6504C14.5304 21 14.4204 20.99 14.3204 20.97C14.2204 20.93 14.1304 20.9 14.0504 20.88H15.7904C15.7304 20.86 15.6404 20.81 15.5204 20.73H15.1304C15.0304 20.65 14.9504 20.57 14.8904 20.49C14.8504 20.41 14.8104 20.35 14.7704 20.31L14.7404 20.28H14.8304L14.6804 19.98H15.9704L15.6404 19.38H18.3404L18.2504 19.23H15.9104L15.8804 19.17V19.23H11.2004V19.38H14.3204V19.98H12.4004V20.28H9.49035C9.49035 20.36 9.47035 20.44 9.43035 20.52C9.39035 20.6 9.35035 20.67 9.31035 20.73H9.04035C8.96035 20.81 8.90035 20.86 8.86035 20.88H6.91035C6.81035 20.96 6.67035 21 6.49035 21H0.760352C0.580352 21 0.440351 20.96 0.340351 20.88H2.26035C2.22035 20.86 2.16035 20.81 2.08035 20.73H2.35035C2.31035 20.67 2.27035 20.6 2.23035 20.52C2.19035 20.44 2.17035 20.36 2.17035 20.28H5.05035V19.98H6.97035V19.38H3.85035V19.23H8.53035V18.78H2.80035V18.33H3.34035V17.73H3.82035V17.43H3.73035V16.83H3.67035V16.23H3.43035V15.78H3.61035V15.48H3.94035V14.88H5.02035V14.43H1.21035V14.13H0.940352V13.98H4.36035V13.68H4.66035V13.53H0.760352V13.08H1.27035V12.78H1.45035V12.18H4.39035V11.88H5.20035V11.43H1.42035V10.83H2.44035V10.38H3.76035V10.23H5.77035V9.93H6.82035V9.48H7.03035V9.33H6.40035V8.88H4.39035V8.73H2.98035V8.13H8.59035V7.83H1.69035V7.53H6.88035V7.08H1.87035V6.78H3.82035V6.48H5.68035V5.88H5.08035V5.43H5.26035V4.98H4.39035V4.83H3.76035V4.38H3.58035V4.23H3.97035V3.93H4.36035V3.33H1.06035V3.18H1.24035V3.03H2.47035V2.88H2.05035V2.73H4.36035V2.58H3.79035V2.43H3.76035V1.83H3.91035V1.53H5.98035V1.23H6.25035V0.929999H6.37035V0.779999H3.16035C3.18035 0.559999 3.28035 0.359999 3.46035 0.18H3.79035C3.91035 0.059999 4.08035 -1.43051e-06 4.30035 -1.43051e-06H10.0304C10.2304 -1.43051e-06 10.4004 0.059999 10.5404 0.18H10.2104C10.4104 0.339999 10.5104 0.539999 10.5104 0.779999H13.7204V0.929999H13.6004V1.23H13.3304V1.53H11.2604V1.83H11.1104V2.43H11.1404V2.58H11.7104V2.73H9.40035V2.88H9.82035V3.03H8.59035V3.18H8.41035V3.33H11.2304L11.3204 3.18H12.2804L12.3404 3.03H14.0804L14.1704 2.88H12.4304L12.5204 2.73H13.0304L13.1204 2.58H13.2704L13.3604 2.43H13.6304L13.6904 2.28H14.0204L14.2604 1.83H14.1104L14.2904 1.53H16.0004L16.1504 1.23H14.7704L14.9204 0.929999H16.4204L16.4804 0.779999H14.4404L14.5004 0.659999C14.6004 0.459999 14.7504 0.299999 14.9504 0.18H14.7104C14.8904 0.059999 15.1304 -1.43051e-06 15.4304 -1.43051e-06H22.0604C22.2404 -1.43051e-06 22.3904 0.059999 22.5104 0.18H22.7804C22.9204 0.319999 22.9904 0.479999 22.9904 0.659999C22.9904 0.719999 22.9804 0.76 22.9604 0.779999H25.0304C25.0304 0.799999 25.0204 0.819999 25.0004 0.839998C25.0004 0.859999 25.0004 0.89 25.0004 0.929999H23.5304L23.4704 0.989998L23.3504 1.23H24.7304L24.5504 1.53H22.8404L22.6604 1.83H22.8104L22.5404 2.28H22.2404L22.1504 2.43H21.8804L21.7904 2.58H21.6404L21.5504 2.73H21.0104L20.9204 2.88H22.6904L22.6004 3.03H20.8604L20.7704 3.18H19.8104L19.7204 3.33H19.9004L19.5704 3.93H20.7704L20.5904 4.23H20.8604L20.7704 4.38H20.8004L20.5304 4.83H20.9504L20.8604 4.98H20.8904L20.6204 5.43H20.0204L19.7504 5.88H20.3804L20.0204 6.48H19.6904L19.5104 6.78H17.5604L17.3804 7.08H22.3904L22.1204 7.53H16.9304L16.7504 7.83H23.6504L23.4704 8.13H17.8604L17.5004 8.73H18.9104L18.8204 8.88H20.8304L20.5604 9.33H21.1904L21.1004 9.48H20.8904L20.6204 9.93H19.5704L19.5104 10.05L19.6304 10.23H17.6204L17.7104 10.38H16.3904L16.6604 10.83H15.6104L15.9704 11.43H19.7504L20.0204 11.88H19.2104L19.3904 12.18H16.4504L16.8104 12.78H16.6304L16.8104 13.08H16.3004L16.5704 13.53H20.4704L20.5604 13.68H20.2304L20.4104 13.98H19.5704L19.6604 14.13H19.3604L19.5404 14.43H17.3204L17.5904 14.88H20.1704L20.5304 15.48H20.4704L20.6504 15.78H20.8904L21.1604 16.23H21.7004L22.0604 16.83H21.5204L21.8804 17.43H21.9104L22.0604 17.73H22.1204L22.4804 18.33H22.6604L22.9304 18.78H24.4304L24.7004 19.23H27.0404L27.1304 19.38H24.4304ZM11.1104 4.83H11.7404V4.98H12.4304L12.5204 4.83H12.1004L12.3404 4.38H12.3104L12.4004 4.23H12.1304L12.2804 3.93H11.3204V4.23H10.9304V4.38H11.1104V4.83ZM11.3204 6.48H11.1704V6.75L11.3204 6.48ZM11.7104 13.98H11.8004L11.7104 13.77V13.98ZM8.29035 14.13H8.56035V14.43H10.9304L10.7504 14.13H11.0504L10.9604 13.98H8.29035V14.13ZM10.1504 18.78H14.1704L13.9304 18.33H13.7204L13.3904 17.73H13.3304L13.1804 17.43H13.1504L12.8204 16.83H13.3604L13.0304 16.23H12.4904L12.2204 15.78H11.9804L11.8304 15.48H11.8904L11.5304 14.88H11.2904V15.48H10.9604V15.78H10.7804V16.23H11.0204V16.83H11.0804V17.43H11.1704V17.73H10.6904V18.33H10.1504V18.78ZM40.4206 19.38V19.68H43.0306V20.19C43.0306 20.23 43.0206 20.26 43.0006 20.28H41.5906C41.5506 20.56 41.4206 20.76 41.2006 20.88H40.9306C40.8306 20.96 40.6906 21 40.5106 21H35.2606C35.0806 21 34.9406 20.96 34.8406 20.88H35.0806C34.8806 20.74 34.7606 20.54 34.7206 20.28H36.1606V19.68H34.9606C34.8606 19.78 34.7506 19.88 34.6306 19.98C34.5306 20.08 34.4206 20.18 34.3006 20.28H33.9706C33.6106 20.54 33.2506 20.74 32.8906 20.88H31.9306C31.7906 20.94 31.6306 20.99 31.4506 21.03C31.2906 21.09 31.1206 21.14 30.9406 21.18H30.7006C30.5006 21.22 30.2906 21.25 30.0706 21.27C29.8706 21.29 29.6606 21.3 29.4406 21.3C29.2006 21.3 28.9606 21.29 28.7206 21.27C28.5006 21.25 28.2806 21.22 28.0606 21.18H28.3006C28.1006 21.14 27.9006 21.09 27.7006 21.03C27.5206 20.99 27.3406 20.94 27.1606 20.88H28.0906C27.6506 20.72 27.2506 20.52 26.8906 20.28H27.2206C27.0806 20.18 26.9506 20.08 26.8306 19.98C26.7106 19.88 26.5906 19.78 26.4706 19.68H24.9706L24.7006 19.38C24.6806 19.34 24.6506 19.29 24.6106 19.23C24.5706 19.17 24.5306 19.12 24.4906 19.08H25.3906C25.3506 19 25.3006 18.93 25.2406 18.87C25.2006 18.79 25.1606 18.71 25.1206 18.63H24.8506C24.8506 18.61 24.8306 18.56 24.7906 18.48H24.5206L24.4306 18.33H24.4606L24.2806 17.88H24.1306C24.1106 17.8 24.0906 17.73 24.0706 17.67C24.0506 17.59 24.0306 17.51 24.0106 17.43H22.8706C22.8106 17.21 22.7806 17.01 22.7806 16.83H23.7706V16.53C23.7706 16.43 23.7706 16.33 23.7706 16.23C23.7706 16.11 23.7806 16.01 23.8006 15.93H24.7006C24.7206 15.83 24.7406 15.73 24.7606 15.63C24.7806 15.51 24.8006 15.41 24.8206 15.33H23.9806L24.0406 15.18H24.0706L24.1306 15.03H24.1006C24.1406 14.95 24.1806 14.88 24.2206 14.82C24.2606 14.74 24.2906 14.66 24.3106 14.58H22.5406L22.7206 14.28H22.0606C22.1206 14.22 22.1606 14.17 22.1806 14.13H23.2606C23.3006 14.09 23.3406 14.04 23.3806 13.98C23.4206 13.92 23.4606 13.87 23.5006 13.83H23.5606C23.7606 13.59 23.9706 13.39 24.1906 13.23H21.7306C21.8706 13.13 22.0206 13.03 22.1806 12.93C22.3206 12.81 22.4706 12.71 22.6306 12.63H24.2806L24.5506 12.48H25.3906C25.4306 12.44 25.4806 12.41 25.5406 12.39C25.6006 12.37 25.6506 12.35 25.6906 12.33H26.0506C26.4106 12.15 26.8006 12 27.2206 11.88H29.0506C29.3306 11.78 29.6106 11.7 29.8906 11.64C30.1906 11.56 30.5006 11.49 30.8206 11.43H30.0706L30.5506 11.34L33.7306 10.83V10.68H35.2606V10.53H32.3806V10.38H34.0906C34.0906 10.28 34.0906 10.2 34.0906 10.14C34.0906 10.06 34.0806 9.99 34.0606 9.93C34.0406 9.75 33.9706 9.6 33.8506 9.48H33.3406C33.3206 9.46 33.2706 9.43 33.1906 9.39L32.9806 9.48H32.4706C32.3906 9.54 32.3106 9.61 32.2306 9.69C32.1506 9.75 32.0606 9.83 31.9606 9.93H31.9906C31.7706 10.15 31.4906 10.26 31.1506 10.26H26.0506C25.7506 10.26 25.5506 10.15 25.4506 9.93H25.4206C25.3606 9.83 25.3406 9.72 25.3606 9.6V9.48H25.8406C25.8606 9.44 25.8706 9.39 25.8706 9.33H23.9506C23.9506 9.25 23.9706 9.15 24.0106 9.03H28.3306C28.3306 9.01 28.3506 8.96 28.3906 8.88H25.7206C25.7806 8.68 25.8706 8.48 25.9906 8.28H26.5006C26.5606 8.18 26.6306 8.08 26.7106 7.98C26.7906 7.88 26.8706 7.78 26.9506 7.68H24.7006L24.9706 7.38H29.3206C29.4006 7.3 29.4806 7.23 29.5606 7.17C29.6606 7.09 29.7506 7.01 29.8306 6.93H27.0706L27.2506 6.78H26.4106C26.5106 6.7 26.6206 6.63 26.7406 6.57C26.8606 6.49 26.9806 6.41 27.1006 6.33H28.5106C28.9306 6.09 29.3706 5.89 29.8306 5.73H30.0406C30.5806 5.53 31.1806 5.38 31.8406 5.28C32.5206 5.16 33.2606 5.1 34.0606 5.1C35.7006 5.1 37.0906 5.31 38.2306 5.73H37.9906C38.2106 5.81 38.4206 5.9 38.6206 6C38.8406 6.1 39.0506 6.21 39.2506 6.33H37.8406L38.4706 6.78H39.3106L39.4906 6.93H42.2506L42.7006 7.38H38.3506C38.3906 7.42 38.4306 7.47 38.4706 7.53C38.5106 7.59 38.5506 7.64 38.5906 7.68H40.8106C40.8906 7.76 40.9606 7.86 41.0206 7.98C41.1006 8.08 41.1606 8.18 41.2006 8.28H40.7206L40.9906 8.88H43.6606C43.7006 8.96 43.7206 9.01 43.7206 9.03H39.4006C39.4406 9.07 39.4606 9.12 39.4606 9.18C39.4806 9.24 39.5006 9.29 39.5206 9.33H40.5106C40.5106 9.35 40.5106 9.37 40.5106 9.39C40.5306 9.41 40.5406 9.44 40.5406 9.48H41.0506L41.2306 10.38H39.4906C39.4906 10.4 39.4906 10.42 39.4906 10.44C39.5106 10.46 39.5206 10.49 39.5206 10.53H42.4006V10.68H40.9006V10.83C40.9206 10.93 40.9306 11.03 40.9306 11.13C40.9306 11.23 40.9306 11.33 40.9306 11.43H41.7106V11.88H39.8506V12.33H39.5206V12.48H38.7106V12.63H37.0606V13.23H39.5206V13.83H39.4606V14.13H38.3806V14.28H39.0406V14.58H41.0206V15.03H40.6606V15.33H40.9006V15.93H40.7206V16.83H39.7306V17.43H40.8706V17.88H41.0206V18.48H41.2906V18.63H41.5306V19.08H40.6006V19.38H40.4206ZM31.7206 9.3C31.5806 9.3 31.4806 9.31 31.4206 9.33H32.0506C31.9906 9.31 31.8806 9.3 31.7206 9.3ZM31.9306 14.52L31.6606 14.58H31.9306V14.52ZM30.9106 15.33H31.7506C31.5306 15.49 31.4206 15.69 31.4206 15.93H30.5206V16.02C30.5206 16.22 30.5906 16.39 30.7306 16.53C30.8306 16.67 31.0306 16.77 31.3306 16.83H32.0506C32.3506 16.77 32.6106 16.67 32.8306 16.53C33.0106 16.37 33.1806 16.17 33.3406 15.93H33.4906C33.5306 15.83 33.5706 15.74 33.6106 15.66C33.6506 15.56 33.6806 15.45 33.7006 15.33H33.4606C33.4606 15.29 33.4606 15.26 33.4606 15.24C33.4806 15.22 33.4906 15.2 33.4906 15.18H33.5206V15.03H33.8806C33.9006 14.95 33.9106 14.88 33.9106 14.82C33.9106 14.74 33.9106 14.66 33.9106 14.58H33.4006L31.9306 14.91C31.8506 14.93 31.7706 14.95 31.6906 14.97C31.6306 14.99 31.5706 15.01 31.5106 15.03C31.4506 15.05 31.3906 15.07 31.3306 15.09C31.2706 15.11 31.2206 15.14 31.1806 15.18H31.1506C31.1106 15.2 31.0706 15.22 31.0306 15.24C30.9906 15.26 30.9506 15.29 30.9106 15.33ZM31.0606 16.83H30.3106C30.3906 16.85 30.5106 16.86 30.6706 16.86C30.7306 16.86 30.7906 16.86 30.8506 16.86C30.9306 16.86 31.0006 16.85 31.0606 16.83ZM60.8689 6.63H58.4389L58.3789 6.78H60.8989L60.6289 7.38H59.4589L59.2189 7.98H59.8489L59.6089 8.58H58.6189L58.4989 8.88H59.2489L59.1289 9.18H58.9489L58.8889 9.33H58.8589L58.6489 9.78H58.9489L58.7689 10.23H56.6389L56.4889 10.53H58.1389L58.0789 10.68H55.3789L55.2589 10.98H55.0189L54.7489 11.58H58.7089L58.6489 11.73H57.9589L57.8089 12.03H58.0189L57.9589 12.18H57.7789L57.5089 12.78L57.3289 13.23H56.9689L56.7589 13.68H56.9989L56.7889 14.13H56.8789L56.8189 14.28H56.7889L56.6689 14.58H56.8189L56.6989 14.88H56.5489L56.4289 15.18H56.3989L56.2189 15.63H56.3989L56.3389 15.78H56.1589L55.9489 16.23H54.8389L54.5689 16.83H55.2889L55.1689 17.13H56.0389L55.7989 17.73H54.8089L54.6889 18.03H55.1689L54.9289 18.63H54.7789L54.5089 19.23H54.7189L54.5989 19.53H54.5389L54.3889 19.83H54.3289L54.1189 20.28H54.2089L53.9989 20.73H53.7589L53.5489 21.18H53.1289L52.9789 21.48H55.1689L54.9289 22.08H52.7089L52.4389 22.68H53.6689L53.3989 23.28H54.6289L54.3589 23.88H54.4189L54.1789 24.48H50.3989L50.2489 24.78H51.1189L50.9989 25.08H52.3189L52.1689 25.38H49.1689L49.0189 25.68H50.5789L50.4589 25.98C50.3589 26.24 50.1889 26.44 49.9489 26.58H48.6889C48.5289 26.66 48.3589 26.7 48.1789 26.7H43.2589C43.0789 26.7 42.9489 26.66 42.8689 26.58H44.0989C43.9189 26.44 43.8289 26.27 43.8289 26.07V25.98C43.8289 25.9 43.8389 25.83 43.8589 25.77L43.8889 25.68H42.3289L42.4789 25.38H45.4789L45.5989 25.08H44.2789L44.3989 24.78H43.5589L43.6789 24.48H47.4589L47.7289 23.88H47.6689L47.9089 23.28H46.6789L46.9189 22.68H45.7189L45.9589 22.08H48.1789L48.4189 21.48H46.2289L46.3489 21.18H46.7989L46.9789 20.73H47.2489L47.4289 20.28H47.3689L47.4889 20.01L47.3989 19.83H47.4589L47.3389 19.53H47.4289L47.2789 19.23H47.0689L46.8289 18.63H46.9789L46.7089 18.03H46.2289L46.0789 17.73H47.0689L46.8289 17.13H45.9289L45.8089 16.83H45.0889L44.8489 16.23H45.9589L45.7789 15.78H45.9589L45.8989 15.63H45.6889L45.5089 15.18H45.5389L45.4189 14.88H45.5389L45.4189 14.58H45.2389L45.1189 14.28H45.1489L45.0889 14.13H44.9989L44.8189 13.68H44.6089L44.3989 13.23H44.7589L44.5789 12.78H44.1589L43.9189 12.18H44.2489L44.1589 12.03H44.6389L44.4889 11.73H43.7389L43.6489 11.58H43.6189L43.3489 10.98H39.5989L39.4489 10.68H41.6989L41.6389 10.53H41.7589L41.6089 10.23H43.1089L42.8989 9.78H43.1689L42.9889 9.33H43.0489L42.9889 9.18H42.9589L42.8389 8.88H42.7489L42.5989 8.58H42.8989L42.6589 7.98H41.8489L41.5789 7.38H42.2089L41.9689 6.78H40.3489L40.2889 6.63H42.6589L42.5389 6.33C42.5189 6.27 42.5089 6.2 42.5089 6.12C42.5089 6.08 42.5189 6.05 42.5389 6.03H42.9589C43.0589 5.61 43.2989 5.4 43.6789 5.4H48.7489C49.0289 5.4 49.2389 5.47 49.3789 5.61C49.5189 5.73 49.6189 5.87 49.6789 6.03H49.2589C49.2589 6.05 49.2589 6.07 49.2589 6.09C49.2789 6.09 49.2889 6.1 49.2889 6.12L49.3789 6.33L49.4689 6.63H47.0689L47.1289 6.78H48.7489L48.9889 7.38H48.3589L48.5689 7.98H49.3789L49.5889 8.58H49.2889L49.4089 8.88H49.4989L49.6789 9.33H49.6189L49.7689 9.78H49.5289L49.6789 10.23H48.2089L48.2989 10.53H48.1789L48.2389 10.68H46.0189L46.1089 10.98H48.7489L48.8689 10.68H51.5689L51.6289 10.53H49.9789L50.0989 10.23H52.1989L52.3789 9.78H52.0789L52.2589 9.33H52.2889L52.3489 9.18H52.5289L52.6189 8.88H51.8689L51.9889 8.58H52.9489L53.1889 7.98H52.5289L52.7689 7.38H53.9389L54.1489 6.78H51.6289L51.6889 6.63H54.1189L54.2389 6.33L54.2989 6.12C54.3189 6.1 54.3289 6.07 54.3289 6.03H53.3389C53.4389 5.87 53.5589 5.73 53.6989 5.61C53.8589 5.47 54.0689 5.4 54.3289 5.4H59.3389C59.5189 5.4 59.6789 5.47 59.8189 5.61C59.9589 5.73 60.0289 5.87 60.0289 6.03H61.0189C61.0189 6.15 61.0089 6.25 60.9889 6.33L60.8689 6.63ZM52.1989 11.73L52.2289 11.58H50.1589L50.2189 11.73H50.9689L51.0889 12.03H50.6389L50.6989 12.18H50.3689L50.5789 12.78H50.9989L51.0589 12.96L51.1189 12.78L51.3289 12.18H51.5389L51.5989 12.03H51.3889L51.4789 11.73H52.1989ZM80.9911 7.53H80.6611V7.98H81.3511V8.13H81.0811L80.9911 8.73H81.3211C81.3011 8.77 81.2911 8.82 81.2911 8.88H80.8711C80.8511 8.98 80.8311 9.08 80.8111 9.18C80.7911 9.28 80.7611 9.38 80.7211 9.48C80.7211 9.56 80.7011 9.66 80.6611 9.78H80.3611L80.1811 10.23H80.1511C80.1311 10.33 80.0911 10.43 80.0311 10.53C79.9711 10.63 79.9211 10.73 79.8811 10.83H79.9411L79.8511 10.98H80.1211C80.0611 11.08 80.0011 11.18 79.9411 11.28C79.8811 11.38 79.8111 11.48 79.7311 11.58H79.9411C79.8611 11.68 79.7711 11.78 79.6711 11.88C79.5911 11.98 79.5011 12.08 79.4011 12.18H79.3411C79.2211 12.28 79.1011 12.38 78.9811 12.48C78.8811 12.58 78.7611 12.68 78.6211 12.78H78.4411C78.2811 12.88 78.1111 12.98 77.9311 13.08C77.7711 13.18 77.6011 13.28 77.4211 13.38H77.5111C77.4711 13.4 77.4211 13.42 77.3611 13.44C77.3011 13.46 77.2511 13.49 77.2111 13.53H77.1811C76.8011 13.71 76.3811 13.86 75.9211 13.98C75.7011 14.04 75.4711 14.1 75.2311 14.16C74.9911 14.2 74.7511 14.24 74.5111 14.28H74.4811C73.6811 14.4 72.8311 14.46 71.9311 14.46H69.8311V14.73H70.0411V15.33H70.4011V15.48H69.6811V15.78H69.9511V16.23H69.2011V16.38H70.1311V16.98H69.8611V17.73H69.9811V18.18H69.6211V18.78H69.4711V19.08H70.4611V19.53H69.6211V20.13H70.1911V20.19C70.1911 20.29 70.1811 20.37 70.1611 20.43H69.9811C69.9811 20.45 69.9611 20.5 69.9211 20.58H70.0111C69.9911 20.62 69.9511 20.67 69.8911 20.73H69.9211C69.8411 20.81 69.7811 20.86 69.7411 20.88H69.7711C69.6711 20.96 69.5311 21 69.3511 21H63.1711C62.9911 21 62.8511 20.96 62.7511 20.88H62.6911C62.6511 20.86 62.5911 20.81 62.5111 20.73C62.4911 20.69 62.4711 20.66 62.4511 20.64C62.4311 20.62 62.4211 20.6 62.4211 20.58H62.3311C62.2911 20.5 62.2711 20.45 62.2711 20.43H62.4211C62.4011 20.37 62.3911 20.29 62.3911 20.19V20.13H61.8211V19.53H62.6611V19.08H61.6711V18.78H61.8211V18.18H62.1811V17.73H62.0611V16.98H62.3311V16.38H61.4011V16.23H62.1511V15.78H61.8811V15.48H62.6011V15.33H62.2411V14.73H62.0311V14.28H62.0611V13.38H62.0011V12.78H62.1811V12.18H62.2711V11.58H62.0611V10.98H61.7911V10.83H61.7311V10.23H61.7611V9.78H62.0611V8.88H61.9711V8.73H61.8811V8.13H62.2111V7.98H62.0911V7.53H62.2111V7.23H62.1811V6.93H61.3411V6.33H58.0111V5.88H59.5411V5.28H62.2711V4.98H61.1311V4.38H60.4411V3.93H60.8911V3.78H60.2611V3.18H62.5711V3.03H62.2711V2.58H61.5811V2.13H60.6211V1.53H62.7811V1.08H61.7311V0.929999H61.5211V0.779999H62.0611C62.0611 0.699999 62.0811 0.599999 62.1211 0.48H61.7911C61.8111 0.419999 61.8411 0.369999 61.8811 0.33C61.9211 0.269999 61.9611 0.219999 62.0011 0.18H63.8311C63.9911 0.059999 64.1611 -1.43051e-06 64.3411 -1.43051e-06H73.4311C74.3111 -1.43051e-06 75.1211 0.059999 75.8611 0.18H74.0611C74.3011 0.219999 74.5311 0.269999 74.7511 0.33C74.9911 0.369999 75.2111 0.419999 75.4111 0.48H75.7711C75.9311 0.519999 76.0811 0.569999 76.2211 0.629999C76.3811 0.669999 76.5311 0.719999 76.6711 0.779999H76.1311C76.1911 0.799999 76.2511 0.819999 76.3111 0.839998C76.3711 0.859999 76.4311 0.89 76.4911 0.929999H76.6711L77.0011 1.08H78.0811L78.8611 1.53H76.6711C76.8311 1.61 76.9711 1.71 77.0911 1.83C77.2111 1.93 77.3311 2.03 77.4511 2.13H78.4111L78.8611 2.58H79.5511C79.6111 2.66 79.6711 2.74 79.7311 2.82C79.8111 2.88 79.8711 2.95 79.9111 3.03H80.2111C80.2711 3.09 80.3111 3.14 80.3311 3.18H78.0211C78.0811 3.26 78.1411 3.36 78.2011 3.48C78.2611 3.58 78.3211 3.68 78.3811 3.78H79.0111L79.0711 3.93H78.6511L78.8311 4.38H79.5511L79.7311 4.98H80.8711L80.9611 5.28H78.2311C78.2711 5.36 78.2911 5.46 78.2911 5.58C78.3111 5.68 78.3311 5.78 78.3511 5.88H82.1911C82.2111 5.96 82.2211 6.04 82.2211 6.12C82.2211 6.18 82.2311 6.25 82.2511 6.33H82.1011C82.1211 6.43 82.1311 6.53 82.1311 6.63C82.1511 6.73 82.1611 6.83 82.1611 6.93H80.9911V7.53ZM73.4611 7.98H72.7711L72.8611 7.53H73.1911V7.23C73.1911 7.19 73.1911 7.14 73.1911 7.08C73.1911 7.02 73.1811 6.97 73.1611 6.93H74.3311C74.3111 6.83 74.2911 6.73 74.2711 6.63C74.2511 6.51 74.2211 6.41 74.1811 6.33H74.3011C74.2611 6.17 74.1611 6.02 74.0011 5.88H70.1611C69.9211 5.68 69.6311 5.58 69.2911 5.58H67.1911V5.88H65.6611V6.33H68.9911V6.93H69.8311V7.23H69.8611V7.53H69.7411V7.98H69.8611V8.13H69.5311V8.73H69.6211V8.88H69.7111V8.91H71.8111C71.9311 8.91 72.0211 8.9 72.0811 8.88H72.5011C72.5811 8.86 72.6511 8.84 72.7111 8.82C72.7711 8.78 72.8311 8.75 72.8911 8.73H72.5911C72.8311 8.59 73.0111 8.39 73.1311 8.13H73.4011C73.4411 8.05 73.4611 8 73.4611 7.98ZM104.393 13.98V14.13H106.733V14.43H106.613V14.88H100.403V15.03H101.483V15.48H104.783V15.78H103.073V16.38H102.983V16.53H101.003V16.98H103.943V17.13H104.063V17.58H104.363V18.18H98.5735V18.63H104.693V18.93H102.653V19.38H102.383V19.68H103.073V19.98H102.623V20.28H103.673L103.583 20.58H104.993C104.953 20.64 104.903 20.7 104.843 20.76C104.803 20.8 104.753 20.84 104.693 20.88H105.383C105.283 20.96 105.143 21 104.963 21H99.0835C98.9035 21 98.7635 20.96 98.6635 20.88H97.9735C97.8335 20.82 97.7335 20.72 97.6735 20.58H96.2635L96.1735 20.28H95.1235V19.98H95.5735V19.68H94.8835V19.38H95.1535V18.93H97.1935V18.63H91.7635V18.93H89.2735V19.38H90.9835V19.68H90.5635V19.98H92.1235V20.28H90.4435L90.3535 20.58H91.0135C90.9335 20.72 90.8435 20.82 90.7435 20.88H90.0235C89.9235 20.96 89.7835 21 89.6035 21H83.7235C83.5235 21 83.3735 20.96 83.2735 20.88H83.9935C83.8935 20.82 83.8035 20.72 83.7235 20.58H83.0335C82.9735 20.48 82.9435 20.38 82.9435 20.28H84.6235V19.98H83.0635V19.68H83.4835V19.38H81.7735V18.93H84.2635V18.63H85.7035V18.18H81.0835V17.58H82.7935V17.13H83.9935V16.98H83.1535V16.53H81.7435V16.38H82.0435V15.78H83.0035V15.48H83.4535V15.03H81.2935V14.88H86.8435V14.43H80.0635V14.13H86.4535V13.98H83.3335V13.53H85.1335V13.38H85.4935V13.23H85.3435V12.63H82.3735V12.18H83.3635V12.03H83.0935V11.58H83.2135V11.43H83.2435V11.13H83.2735V10.98H82.8835V10.83H81.7135V10.38H82.1035V9.93H81.5035V9.48H83.0035V8.88H82.6735V8.58H80.4835V8.43H83.9935V8.13H84.8335V7.98H76.7335V7.83H81.5035V7.68H83.2135V7.23H80.1535V6.63H79.3135V6.18H82.9135V5.58H83.2135V5.13H85.1335V4.98H83.4835V4.38H84.8335V4.08H83.2135V3.93H82.6435V3.63H81.7735V3.33H80.7235V2.73H82.6135V2.28H83.7535V1.83H83.2135V1.53H82.4635V1.38H82.8835V1.08H82.7935V0.809999C82.7935 0.669999 82.8235 0.56 82.8835 0.48H84.8035C84.8235 0.419999 84.8535 0.369999 84.8935 0.33C84.9335 0.269999 84.9735 0.219999 85.0135 0.18H89.6335C89.7535 0.059999 89.9235 -1.43051e-06 90.1435 -1.43051e-06H101.663C101.863 -1.43051e-06 102.033 0.059999 102.173 0.18H106.793C106.833 0.219999 106.873 0.269999 106.913 0.33C106.973 0.369999 107.013 0.419999 107.033 0.48H103.163C103.203 0.599999 103.223 0.709999 103.223 0.809999V1.08H103.373V1.38H103.793V1.53H102.983V1.83H102.623V2.28H103.793V2.73H100.973V3.33H104.213V3.63H101.873V3.93H102.833V4.08H102.353V4.38H104.603V4.98H101.303V5.13H103.853V5.58H103.403V6.18H101.003V6.63H100.013V7.23H103.073V7.68H101.363V7.83H96.5935V7.98H104.693V8.13H103.853V8.43H100.343V8.58H102.533V8.88H102.863V9.48H101.363V9.93H101.963V10.38H101.573V10.83H102.743V10.98H103.133V11.13H103.103V11.43H103.073V11.58H102.953V12.03H103.223V12.18H102.233V12.63H105.203V13.23H105.353V13.38H104.993V13.53H103.193V13.98H104.393ZM86.8135 6.18V6.63H87.6535V7.11H92.5135V6.63H93.5035V6.18H95.9035V5.58H96.3535V5.13H93.8035V4.98H97.1035V4.38H94.8535V4.08H95.3335V3.93H94.3735V3.63H96.7135V3.33H93.4735V2.73H96.2935V2.28H95.1235V1.83H95.4835V1.53H96.2935V1.38H95.8735V1.08H95.7235V0.809999C95.7235 0.709999 95.7435 0.599999 95.7835 0.48H99.6535C99.6935 0.419999 99.7335 0.369999 99.7735 0.33C99.8135 0.269999 99.8535 0.219999 99.8935 0.18H91.9135C92.0135 0.259999 92.0935 0.359999 92.1535 0.48H90.2335C90.2735 0.539999 90.2935 0.649999 90.2935 0.809999V1.08H90.3835V1.38H89.9635V1.53H90.7135V1.83H91.2535V2.28H90.1135V2.73H88.2235V3.33H89.2735V3.63H90.1435V3.93H90.7135V4.08H92.3335V4.38H90.9835V4.98H92.6335V5.13H90.7135V5.58H90.4135V6.18H86.8135ZM99.2335 14.43V14.13H96.8935V13.98H95.6935V13.71H90.8335V13.98H93.9535V14.13H87.5635V14.43H94.3435V14.88H99.1135V14.43H99.2335ZM97.2835 15.48H93.9835V15.03H92.9035V14.88H88.7935V15.03H90.9535V15.48H90.5035V15.78H89.5435V16.38H89.2435V16.53H90.6535V16.98H91.4935V17.13H90.2935V17.58H88.5835V18.18H96.8635V17.58H96.5635V17.13H96.4435V16.98H93.5035V16.53H95.4835V16.38H95.5735V15.78H97.2835V15.48ZM125.317 7.53H124.987V7.98H125.677V8.13H125.407L125.317 8.73H125.647C125.627 8.77 125.617 8.82 125.617 8.88H125.197C125.177 8.98 125.157 9.08 125.137 9.18C125.117 9.28 125.087 9.38 125.047 9.48C125.047 9.56 125.027 9.66 124.987 9.78H124.687L124.507 10.23H124.477C124.457 10.33 124.417 10.43 124.357 10.53C124.297 10.63 124.247 10.73 124.207 10.83H124.267L124.177 10.98H124.447C124.387 11.08 124.327 11.18 124.267 11.28C124.207 11.38 124.137 11.48 124.057 11.58H124.267C124.187 11.68 124.097 11.78 123.997 11.88C123.917 11.98 123.827 12.08 123.727 12.18H123.667C123.547 12.28 123.427 12.38 123.307 12.48C123.207 12.58 123.087 12.68 122.947 12.78H122.767C122.607 12.88 122.437 12.98 122.257 13.08C122.097 13.18 121.927 13.28 121.747 13.38H121.837C121.797 13.4 121.747 13.42 121.687 13.44C121.627 13.46 121.577 13.49 121.537 13.53H121.507C121.127 13.71 120.707 13.86 120.247 13.98C120.027 14.04 119.797 14.1 119.557 14.16C119.317 14.2 119.077 14.24 118.837 14.28H118.807C118.007 14.4 117.157 14.46 116.257 14.46H114.157V14.73H114.367V15.33H114.727V15.48H114.007V15.78H114.277V16.23H113.527V16.38H114.457V16.98H114.187V17.73H114.307V18.18H113.947V18.78H113.797V19.08H114.787V19.53H113.947V20.13H114.517V20.19C114.517 20.29 114.507 20.37 114.487 20.43H114.307C114.307 20.45 114.287 20.5 114.247 20.58H114.337C114.317 20.62 114.277 20.67 114.217 20.73H114.247C114.167 20.81 114.107 20.86 114.067 20.88H114.097C113.997 20.96 113.857 21 113.677 21H107.497C107.317 21 107.177 20.96 107.077 20.88H107.017C106.977 20.86 106.917 20.81 106.837 20.73C106.817 20.69 106.797 20.66 106.777 20.64C106.757 20.62 106.747 20.6 106.747 20.58H106.657C106.617 20.5 106.597 20.45 106.597 20.43H106.747C106.727 20.37 106.717 20.29 106.717 20.19V20.13H106.147V19.53H106.987V19.08H105.997V18.78H106.147V18.18H106.507V17.73H106.387V16.98H106.657V16.38H105.727V16.23H106.477V15.78H106.207V15.48H106.927V15.33H106.567V14.73H106.357V14.28H106.387V13.38H106.327V12.78H106.507V12.18H106.597V11.58H106.387V10.98H106.117V10.83H106.057V10.23H106.087V9.78H106.387V8.88H106.297V8.73H106.207V8.13H106.537V7.98H106.417V7.53H106.537V7.23H106.507V6.93H105.667V6.33H102.337V5.88H103.867V5.28H106.597V4.98H105.457V4.38H104.767V3.93H105.217V3.78H104.587V3.18H106.897V3.03H106.597V2.58H105.907V2.13H104.947V1.53H107.107V1.08H106.057V0.929999H105.847V0.779999H106.387C106.387 0.699999 106.407 0.599999 106.447 0.48H106.117C106.137 0.419999 106.167 0.369999 106.207 0.33C106.247 0.269999 106.287 0.219999 106.327 0.18H108.157C108.317 0.059999 108.487 -1.43051e-06 108.667 -1.43051e-06H117.757C118.637 -1.43051e-06 119.447 0.059999 120.187 0.18H118.387C118.627 0.219999 118.857 0.269999 119.077 0.33C119.317 0.369999 119.537 0.419999 119.737 0.48H120.097C120.257 0.519999 120.407 0.569999 120.547 0.629999C120.707 0.669999 120.857 0.719999 120.997 0.779999H120.457C120.517 0.799999 120.577 0.819999 120.637 0.839998C120.697 0.859999 120.757 0.89 120.817 0.929999H120.997L121.327 1.08H122.407L123.187 1.53H120.997C121.157 1.61 121.297 1.71 121.417 1.83C121.537 1.93 121.657 2.03 121.777 2.13H122.737L123.187 2.58H123.877C123.937 2.66 123.997 2.74 124.057 2.82C124.137 2.88 124.197 2.95 124.237 3.03H124.537C124.597 3.09 124.637 3.14 124.657 3.18H122.347C122.407 3.26 122.467 3.36 122.527 3.48C122.587 3.58 122.647 3.68 122.707 3.78H123.337L123.397 3.93H122.977L123.157 4.38H123.877L124.057 4.98H125.197L125.287 5.28H122.557C122.597 5.36 122.617 5.46 122.617 5.58C122.637 5.68 122.657 5.78 122.677 5.88H126.517C126.537 5.96 126.547 6.04 126.547 6.12C126.547 6.18 126.557 6.25 126.577 6.33H126.427C126.447 6.43 126.457 6.53 126.457 6.63C126.477 6.73 126.487 6.83 126.487 6.93H125.317V7.53ZM117.787 7.98H117.097L117.187 7.53H117.517V7.23C117.517 7.19 117.517 7.14 117.517 7.08C117.517 7.02 117.507 6.97 117.487 6.93H118.657C118.637 6.83 118.617 6.73 118.597 6.63C118.577 6.51 118.547 6.41 118.507 6.33H118.627C118.587 6.17 118.487 6.02 118.327 5.88H114.487C114.247 5.68 113.957 5.58 113.617 5.58H111.517V5.88H109.987V6.33H113.317V6.93H114.157V7.23H114.187V7.53H114.067V7.98H114.187V8.13H113.857V8.73H113.947V8.88H114.037V8.91H116.137C116.257 8.91 116.347 8.9 116.407 8.88H116.827C116.907 8.86 116.977 8.84 117.037 8.82C117.097 8.78 117.157 8.75 117.217 8.73H116.917C117.157 8.59 117.337 8.39 117.457 8.13H117.727C117.767 8.05 117.787 8 117.787 7.98Z" fill="black"/>
</svg>
